<svg id="visual" viewBox="0 0 900 600" width="900" height="600" xmlns="http://www.w3.org/2000/svg" xmlns:xlink="http://www.w3.org/1999/xlink" version="1.1"><path d="M0 405L30 393.5C60 382 120 359 180 324.8C240 290.7 300 245.3 360 224.7C420 204 480 208 540 226.5C600 245 660 278 720 291.3C780 304.7 840 298.3 870 295.2L900 292L900 0L870 0C840 0 780 0 720 0C660 0 600 0 540 0C480 0 420 0 360 0C300 0 240 0 180 0C120 0 60 0 30 0L0 0Z" fill="#7749ff" stroke-linecap="round" stroke-linejoin="miter"></path></svg>